<svg width="10" height="10" viewBox="0 0 10 10" fill="none" xmlns="http://www.w3.org/2000/svg">
<path d="M6.62397 6.11916C6.5515 6.09895 6.09344 5.92289 6.37967 5.18092H6.37557C7.1217 4.52563 7.69189 3.47118 7.69189 2.43305C7.69189 0.836799 6.44713 0 5.00046 0C3.55287 0 2.31495 0.83641 2.31495 2.43305C2.31495 3.47546 2.88195 4.53418 3.63263 5.18792C3.92525 5.84243 3.40201 6.08535 3.29262 6.11955C1.77758 6.58673 0 7.4383 0 8.27899V8.59419C0 9.73959 2.60438 10 5.01459 10C7.42844 10 10 9.73959 10 8.59419V8.27899C10 7.41304 8.21377 6.56807 6.62397 6.11916Z" fill="#9B9595"/>
</svg>
