<svg width="10" height="10" viewBox="0 0 10 10" fill="none" xmlns="http://www.w3.org/2000/svg">
<path d="M5 0C2.238 0 0 1.394 0 3.1207C0 6.10632 5 10 5 10C5 10 10 6.10569 10 3.1207C10 1.39462 7.762 0 5 0ZM5 4.8474C4.28392 4.8474 3.59716 4.6695 3.09081 4.35284C2.58446 4.03617 2.3 3.60668 2.3 3.15885C2.3 2.71102 2.58446 2.28153 3.09081 1.96486C3.59716 1.64819 4.28392 1.47029 5 1.47029C5.71608 1.47029 6.40284 1.64819 6.90919 1.96486C7.41554 2.28153 7.7 2.71102 7.7 3.15885C7.7 3.60668 7.41554 4.03617 6.90919 4.35284C6.40284 4.6695 5.71608 4.8474 5 4.8474Z" fill="#9B9595"/>
</svg>
