<svg width="79" height="79" viewBox="0 0 79 79" fill="none" xmlns="http://www.w3.org/2000/svg">
<circle cx="39.5" cy="39.5" r="39.5" fill="#E53338"/>
<ellipse cx="39.5" cy="39.1238" rx="35.7381" ry="35.3619" fill="#F4F4F1"/>
<path d="M25.168 17V9.89062H27.6582C28.5208 9.89062 29.1751 10.0566 29.6211 10.3887C30.0671 10.7174 30.29 11.2008 30.29 11.8389C30.29 12.1872 30.2005 12.4948 30.0215 12.7617C29.8424 13.0254 29.5934 13.2191 29.2744 13.3428C29.639 13.4339 29.9255 13.6178 30.1338 13.8945C30.3454 14.1712 30.4512 14.5098 30.4512 14.9102C30.4512 15.5938 30.2331 16.1113 29.7969 16.4629C29.3607 16.8145 28.7389 16.9935 27.9316 17H25.168ZM26.6328 13.9043V15.8232H27.8877C28.2327 15.8232 28.5013 15.7419 28.6934 15.5791C28.8887 15.4131 28.9863 15.1852 28.9863 14.8955C28.9863 14.2445 28.6494 13.9141 27.9756 13.9043H26.6328ZM26.6328 12.8691H27.7168C28.4557 12.8561 28.8252 12.5615 28.8252 11.9854C28.8252 11.6631 28.7308 11.432 28.542 11.292C28.3564 11.1488 28.0618 11.0771 27.6582 11.0771H26.6328V12.8691ZM35.832 13.9189H33.0195V15.8232H36.3203V17H31.5547V9.89062H36.3105V11.0771H33.0195V12.7715H35.832V13.9189ZM39.8066 15.2373L41.418 9.89062H43.0488L40.5732 17H39.0449L36.5791 9.89062H38.2051L39.8066 15.2373ZM49.2354 14.6318C49.18 15.3968 48.8968 15.999 48.3857 16.4385C47.8779 16.8779 47.2074 17.0977 46.374 17.0977C45.4626 17.0977 44.7448 16.7917 44.2207 16.1797C43.6999 15.5645 43.4395 14.7214 43.4395 13.6504V13.2158C43.4395 12.5322 43.5599 11.93 43.8008 11.4092C44.0417 10.8883 44.3851 10.4896 44.8311 10.2129C45.2803 9.93294 45.8011 9.79297 46.3936 9.79297C47.2139 9.79297 47.8747 10.0127 48.376 10.4521C48.8773 10.8916 49.167 11.5085 49.2451 12.3027H47.7803C47.7445 11.8438 47.6159 11.5117 47.3945 11.3066C47.1764 11.0983 46.8428 10.9941 46.3936 10.9941C45.9053 10.9941 45.5391 11.1699 45.2949 11.5215C45.054 11.8698 44.9303 12.4118 44.9238 13.1475V13.6846C44.9238 14.4528 45.0394 15.0143 45.2705 15.3691C45.5049 15.724 45.8727 15.9014 46.374 15.9014C46.8265 15.9014 47.1634 15.7988 47.3848 15.5938C47.6094 15.3854 47.738 15.0648 47.7705 14.6318H49.2354ZM56.0371 13.6064C56.0371 14.3063 55.9134 14.9199 55.666 15.4473C55.4186 15.9746 55.0638 16.3815 54.6016 16.668C54.1426 16.9544 53.6152 17.0977 53.0195 17.0977C52.4303 17.0977 51.9046 16.9561 51.4424 16.6729C50.9801 16.3896 50.6221 15.986 50.3682 15.4619C50.1143 14.9346 49.9857 14.3291 49.9824 13.6455V13.2939C49.9824 12.5941 50.1077 11.9788 50.3584 11.4482C50.6123 10.9144 50.9688 10.5059 51.4277 10.2227C51.89 9.9362 52.4173 9.79297 53.0098 9.79297C53.6022 9.79297 54.1279 9.9362 54.5869 10.2227C55.0492 10.5059 55.4056 10.9144 55.6562 11.4482C55.9102 11.9788 56.0371 12.5924 56.0371 13.2891V13.6064ZM54.5527 13.2842C54.5527 12.5387 54.4193 11.9723 54.1523 11.585C53.8854 11.1976 53.5046 11.0039 53.0098 11.0039C52.5182 11.0039 52.139 11.196 51.8721 11.5801C51.6051 11.9609 51.4701 12.5208 51.4668 13.2598V13.6064C51.4668 14.3324 51.6003 14.8955 51.8672 15.2959C52.1341 15.6963 52.5182 15.8965 53.0195 15.8965C53.5111 15.8965 53.8887 15.7044 54.1523 15.3203C54.416 14.9329 54.5495 14.3698 54.5527 13.6309V13.2842Z" fill="#E53338"/>
<path d="M23.882 28.9666L20.4963 26.7095C13.8739 43.4682 16.9157 50.6382 31.0296 60.5666L29.9011 66.5857C11.1192 56.5616 3.80966 45.3065 15.2296 22.9476L12.2201 20.3143L23.882 17.3047V28.9666Z" fill="#E53338"/>
<path d="M35.9201 43.6381H30.2773L39.682 55.6762L49.0868 43.6381H43.8201L43.0678 18.4333H35.9201V43.6381Z" fill="#E53338"/>
<path d="M56.9868 30.4714L59.9963 27.8381C65.7078 49.7119 59.3348 53.3577 48.3344 60.1905V67.3381C66.931 55.7112 73.3424 47.4719 65.263 24.4524L68.2725 21.4428L56.9868 18.4333V30.4714Z" fill="#E53338"/>
<ellipse cx="40.0582" cy="63.9524" rx="6.77143" ry="6.77143" fill="#E53338"/>
</svg>
