<svg width="10" height="10" viewBox="0 0 10 10" fill="none" xmlns="http://www.w3.org/2000/svg">
<path d="M9.9625 0L5.4125 6.41309C5.2954 6.57784 5.13699 6.67032 4.97188 6.67032C4.80676 6.67032 4.64835 6.57784 4.53125 6.41309L0.021875 0.0486511C0.00801232 0.120761 0.000662089 0.195067 0 0.269792V9.11544C0 9.35004 0.065848 9.57503 0.183058 9.74092C0.300269 9.90681 0.45924 10 0.625 10H9.375C9.54076 10 9.69973 9.90681 9.81694 9.74092C9.93415 9.57503 10 9.35004 10 9.11544V0.269792C9.99751 0.177645 9.98486 0.0866145 9.9625 0ZM1.05313 9.11544H0.61875V8.48297L2.89062 5.29412L3.33125 5.91774L1.05313 9.11544ZM9.36875 9.11544H8.93125L6.65312 5.91774L7.09375 5.29412L9.36562 8.48297L9.36875 9.11544Z" fill="#9B9595"/>
</svg>
