<svg width="10" height="10" viewBox="0 0 10 10" fill="none" xmlns="http://www.w3.org/2000/svg">
<path d="M4.15671 5.83966C4.76968 6.47464 5.51136 6.96488 6.32965 7.27595L7.43667 6.3764C7.46949 6.35332 7.50841 6.34096 7.54826 6.34096C7.58811 6.34096 7.62702 6.35332 7.65984 6.3764L9.71532 7.72873C9.79336 7.77664 9.85942 7.84242 9.90828 7.92087C9.95714 7.99933 9.98746 8.08831 9.99686 8.18079C10.0063 8.27327 9.99447 8.36672 9.96243 8.45375C9.93038 8.54078 9.87896 8.61901 9.81223 8.68225L8.84908 9.65377C8.71115 9.79294 8.54163 9.89508 8.35563 9.95106C8.16964 10.007 7.97297 10.0151 7.78317 9.97462C5.88984 9.57531 4.14471 8.64013 2.74724 7.27595C1.38078 5.89821 0.435193 4.14516 0.0251901 2.22945C-0.0153128 2.03864 -0.00685928 1.84038 0.0497315 1.65388C0.106322 1.46738 0.209131 1.29898 0.348195 1.16498L1.34657 0.181467C1.40835 0.116635 1.4837 0.0669158 1.56696 0.036032C1.65023 0.00514819 1.73926 -0.00610001 1.82738 0.00312967C1.91551 0.0123594 2.00045 0.0418278 2.07584 0.0893283C2.15123 0.136829 2.21512 0.201131 2.26273 0.277419L3.63109 2.34939C3.6547 2.38193 3.66744 2.42135 3.66744 2.46184C3.66744 2.50233 3.6547 2.54175 3.63109 2.57428L2.72962 3.68073C3.04252 4.49961 3.53 5.23709 4.15671 5.83966Z" fill="#9B9595"/>
</svg>
